<?xml version="1.0" encoding="UTF-8" standalone="no"?>
<!-- Created with Inkscape (http://www.inkscape.org/) -->

<svg
   xmlns:dc="http://purl.org/dc/elements/1.1/"
   xmlns:cc="http://creativecommons.org/ns#"
   xmlns:rdf="http://www.w3.org/1999/02/22-rdf-syntax-ns#"
   xmlns:svg="http://www.w3.org/2000/svg"
   xmlns="http://www.w3.org/2000/svg"
   xmlns:sodipodi="http://sodipodi.sourceforge.net/DTD/sodipodi-0.dtd"
   xmlns:inkscape="http://www.inkscape.org/namespaces/inkscape"
   width="1024"
   height="1024"
   id="svg2"
   version="1.1"
   inkscape:version="0.48.2 r9819"
   sodipodi:docname="logo.svg">
  <defs
     id="defs4" />
  <sodipodi:namedview
     id="base"
     pagecolor="#ffffff"
     bordercolor="#666666"
     borderopacity="1.0"
     inkscape:pageopacity="0.0"
     inkscape:pageshadow="2"
     inkscape:zoom="1.8892933"
     inkscape:cx="518.79582"
     inkscape:cy="638.0338"
     inkscape:document-units="px"
     inkscape:current-layer="layer1"
     showgrid="false"
     inkscape:object-nodes="true"
     inkscape:snap-smooth-nodes="true"
     inkscape:snap-nodes="false"
     inkscape:object-paths="true"
     inkscape:window-width="1680"
     inkscape:window-height="944"
     inkscape:window-x="0"
     inkscape:window-y="0"
     inkscape:window-maximized="1">
    <inkscape:grid
       type="xygrid"
       id="grid2987"
       units="in"
       empspacing="5"
       visible="true"
       enabled="true"
       snapvisiblegridlinesonly="true" />
  </sodipodi:namedview>
  <metadata
     id="metadata7">
    <rdf:RDF>
      <cc:Work
         rdf:about="">
        <dc:format>image/svg+xml</dc:format>
        <dc:type
           rdf:resource="http://purl.org/dc/dcmitype/StillImage" />
        <dc:title></dc:title>
      </cc:Work>
    </rdf:RDF>
  </metadata>
  <g
     inkscape:label="Layer 1"
     inkscape:groupmode="layer"
     id="layer1"
     transform="translate(0,-28.362183)">
    <path
       style="fill:none;stroke:#000000;stroke-width:1px;stroke-linecap:butt;stroke-linejoin:miter;stroke-opacity:1"
       d="m 538.75,212.5625 c 0,0 -125.11082,-0.1475 -187.16352,6.68399 C 320.04825,222.71859 258,236.625 258,236.625 l 0,351.5625 554.78125,167.125 0,-314.15625 z"
       transform="translate(0,28.362183)"
       id="path2985"
       inkscape:connector-curvature="0"
       sodipodi:nodetypes="caccccc" />
    <path
       style="fill:#ffb0e2;fill-opacity:1;stroke:#000000;stroke-width:1px;stroke-linecap:butt;stroke-linejoin:miter;stroke-opacity:1"
       d="m 258,616.54968 c 0,0 -26.29774,-2.59407 -27.10552,-25.97644 -0.80778,-23.38237 16.06222,-30.11667 16.06222,-30.11667 l 0,-268.03837 c 0,0 -21.08167,-13.05056 -22.08556,-31.12056 -1.00389,-18.07 10.33325,-30.07614 22.08556,-28.10889 11.06652,1.85245 32.12055,24.16322 11.0433,31.79843 l 554.78125,204.53125 0,8.61924 c 0,0 -35.77116,-7.02723 -44.80616,-9.035 -9.035,-2.00778 -28.10889,-19.0739 -40.15556,-22.08556 -12.04667,-3.01167 -29.11278,-7.02723 -45.175,-12.04667 -16.06223,-5.01945 -47.18279,-26.10112 -64.2489,-30.11667 -17.06611,-4.01556 -48.18667,-6.02334 -73.2839,-15.05834 -25.09722,-9.035 -41.15945,-26.10111 -62.24112,-35.13611 -21.08167,-9.035 -31.12056,5.01944 -60.23334,-3.01167 -29.11278,-8.03111 -19.07389,-24.09334 -34.13222,-30.11667 -15.05834,-6.02333 -33.12834,-2.00778 -47.18279,-8.03111 C 327.26782,307.47653 318.23282,292.4182 303.17448,288.40264 288.11615,284.38709 258,276.35598 258,276.35598"
       id="path3790"
       inkscape:connector-curvature="0"
       sodipodi:nodetypes="csccsscccssssssssssc" />
    <path
       style="fill:#ffb0e2;fill-opacity:1;stroke:#000000;stroke-width:1px;stroke-linecap:butt;stroke-linejoin:miter;stroke-opacity:1"
       d="m 246.9567,233.18875 c 9.99973,-2.7798 18.07,11.04278 29.11278,11.04278 11.04278,0 18.07,-13.05056 33.12834,-15.05834 15.05833,-2.00778 24.09333,7.02722 32.12444,6.02333 8.03111,-1.00389 16.06223,-18.07 34.13223,-18.07 18.07,0 20.07778,10.03889 34.13223,8.03112 14.05444,-2.00778 29.11278,-13.05056 42.16333,-13.05056 13.05056,0 17.06612,16.06222 33.12834,16.06222 16.06223,0 29.11278,-12.04667 47.18279,-14.05444 18.07,-2.00778 25.09722,9.035 26.10111,20.07778 1.00389,11.04278 -3.76561,19.78433 -3.76561,19.78433 L 812.78125,469.51843 258,264.98718 c 9.52119,-15.22811 -11.0433,-31.79843 -11.0433,-31.79843 z"
       id="path2996"
       inkscape:connector-curvature="0"
       sodipodi:nodetypes="cssssssssscccc" />
  </g>
</svg>
